<svg xmlns="http://www.w3.org/2000/svg" xmlns:xlink="http://www.w3.org/1999/xlink" width="500" zoomAndPan="magnify" viewBox="0 0 375 374.999991" height="500" preserveAspectRatio="xMidYMid meet" version="1.0"><defs><g/><clipPath id="05e8f39ddf"><path d="M 187.5 0 C 83.945312 0 0 83.945312 0 187.5 C 0 291.054688 83.945312 375 187.5 375 C 291.054688 375 375 291.054688 375 187.5 C 375 83.945312 291.054688 0 187.5 0 Z M 187.5 0 " clip-rule="nonzero"/></clipPath></defs><g clip-path="url(#05e8f39ddf)"><rect x="-37.5" width="450" fill="#233dff" y="-37.499999" height="449.999989" fill-opacity="1"/></g><g fill="#ffffff" fill-opacity="1"><g transform="translate(65.211847, 285.124685)"><g><path d="M 26.5625 -94.890625 C 26.5625 -105.710938 28.113281 -115.96875 31.21875 -125.65625 C 34.320312 -135.34375 38.632812 -144.160156 44.15625 -152.109375 L 21.34375 -175.03125 L 43.015625 -197.28125 L 66.171875 -174.359375 C 74.046875 -180.109375 82.75 -184.570312 92.28125 -187.75 C 101.820312 -190.925781 111.8125 -192.515625 122.25 -192.515625 C 132.695312 -192.515625 142.707031 -190.890625 152.28125 -187.640625 C 161.851562 -184.390625 170.613281 -179.847656 178.5625 -174.015625 L 201.828125 -197.28125 L 223.96875 -175.03125 L 200.234375 -151.546875 C 205.679688 -143.671875 209.957031 -134.945312 213.0625 -125.375 C 216.164062 -115.800781 217.71875 -105.640625 217.71875 -94.890625 C 217.71875 -84.679688 216.296875 -74.941406 213.453125 -65.671875 C 210.617188 -56.398438 206.664062 -47.90625 201.59375 -40.1875 L 223.96875 -18.390625 L 201.828125 3.859375 L 180.71875 -17.25 C 172.613281 -10.820312 163.585938 -5.8125 153.640625 -2.21875 C 143.691406 1.375 133.226562 3.171875 122.25 3.171875 C 111.28125 3.171875 100.835938 1.414062 90.921875 -2.09375 C 81.003906 -5.613281 72 -10.515625 63.90625 -16.796875 L 43.015625 3.859375 L 21.34375 -18.390625 L 42.796875 -39.609375 C 37.648438 -47.410156 33.65625 -55.984375 30.8125 -65.328125 C 27.976562 -74.671875 26.5625 -84.523438 26.5625 -94.890625 Z M 55.625 -94.890625 C 55.625 -82.109375 58.570312 -70.550781 64.46875 -60.21875 C 70.375 -49.882812 78.378906 -41.671875 88.484375 -35.578125 C 98.585938 -29.492188 109.84375 -26.453125 122.25 -26.453125 C 134.4375 -26.453125 145.539062 -29.492188 155.5625 -35.578125 C 165.59375 -41.671875 173.597656 -49.882812 179.578125 -60.21875 C 185.554688 -70.550781 188.582031 -82.109375 188.65625 -94.890625 C 188.582031 -107.835938 185.554688 -119.472656 179.578125 -129.796875 C 173.597656 -140.128906 165.59375 -148.300781 155.5625 -154.3125 C 145.539062 -160.332031 134.4375 -163.34375 122.25 -163.34375 C 109.84375 -163.34375 98.585938 -160.332031 88.484375 -154.3125 C 78.378906 -148.300781 70.375 -140.128906 64.46875 -129.796875 C 58.570312 -119.472656 55.625 -107.835938 55.625 -94.890625 Z M 55.625 -94.890625 "/></g></g></g></svg>